<svg xmlns="http://www.w3.org/2000/svg" version="1.1" xmlns:xlink="http://www.w3.org/1999/xlink" xmlns:svgjs="http://svgjs.com/svgjs" width="1520" height="560" preserveAspectRatio="none" viewBox="0 0 1520 560"><g mask="url(&quot;#SvgjsMask1002&quot;)" fill="none"><rect width="1520" height="560" x="0" y="0" fill="#0e2a47"></rect><path d="M1115.73 292.8L1146.52 292.8L1146.52 323.59L1115.73 323.59z" fill="#037b0b"></path><path d="M114.41 142.93a53.31 53.31 0 1 0-19.38 104.84z" fill="#d3b714"></path><path d="M646.31 167.82a28.56 28.56 0 1 0 43.46 37.07z" stroke="#d3b714"></path><path d="M1085.1 511.64L1097.34 511.64L1097.34 558.65L1085.1 558.65z" fill="#037b0b"></path><path d="M332.18 159.22L354.18 159.22L354.18 181.22L332.18 181.22z" stroke="#e73635"></path><path d="M1403.37 192.2L1420.21 192.2L1420.21 209.04L1403.37 209.04z" fill="#d3b714"></path><path d="M616.38 379.46a24.27 24.27 0 1 0 5.07 48.28z" fill="#d3b714"></path><path d="M555.89 30.27L569.79 30.27L569.79 44.17L555.89 44.17z" fill="#d3b714"></path><path d="M811.01 390.22L858.36 390.22L858.36 437.57L811.01 437.57z" fill="#d3b714"></path><path d="M447.98 92.94L461.46 92.94L461.46 106.42L447.98 106.42z" stroke="#e73635"></path><path d="M217.65 381.71L222.02 381.71L222.02 409.48L217.65 409.48z" stroke="#037b0b"></path><path d="M515.91 195.79L527.79 195.79L527.79 207.67L515.91 207.67z" fill="#e73635"></path><path d="M297.87 462.09 a29.99 29.99 0 1 0 59.98 0 a29.99 29.99 0 1 0 -59.98 0z" fill="#037b0b"></path><path d="M1143.2 41.14L1186.1 41.14L1186.1 84.04L1143.2 84.04z" fill="#d3b714"></path><path d="M223.62 399.19a1.48 1.48 0 1 0-1.24-2.68z" fill="#037b0b"></path><path d="M1071.13 133.77a50.63 50.63 0 1 0 77.57-65.1z" fill="#e73635"></path><path d="M868.08 511.38L913.92 511.38L913.92 557.22L868.08 557.22z" stroke="#037b0b"></path><path d="M366.14 452.15L394.31 452.15L394.31 480.32L366.14 480.32z" stroke="#d3b714"></path><path d="M477.54 74.15 a26.21 26.21 0 1 0 52.42 0 a26.21 26.21 0 1 0 -52.42 0z" stroke="#d3b714"></path><path d="M410.9 108.04a44.04 44.04 0 1 0 52.02 71.07z" stroke="#037b0b"></path><path d="M1127.31 306.02L1140.22 306.02L1140.22 346.17L1127.31 346.17z" fill="#d3b714"></path><path d="M188.43 302.59L221.15 302.59L221.15 324.73L188.43 324.73z" fill="#e73635"></path><path d="M405.36 540.72a30.22 30.22 0 1 0-54.59 25.94z" stroke="#037b0b"></path><path d="M731.19 555.59L758.14 555.59L758.14 570.48L731.19 570.48z" fill="#037b0b"></path><path d="M1375.35 461.96a24.78 24.78 0 1 0-47.22-15.06z" fill="#d3b714"></path><path d="M3.96 198.63 a36.42 36.42 0 1 0 72.84 0 a36.42 36.42 0 1 0 -72.84 0z" stroke="#d3b714"></path><path d="M88.29 371.33a39.27 39.27 0 1 0 41.37-66.76z" fill="#037b0b"></path><path d="M1327.84 87.45 a19.22 19.22 0 1 0 38.44 0 a19.22 19.22 0 1 0 -38.44 0z" stroke="#e73635"></path><path d="M1019.77 370.62 a47.27 47.27 0 1 0 94.54 0 a47.27 47.27 0 1 0 -94.54 0z" fill="#d3b714"></path><path d="M944.87 534.23 a29.24 29.24 0 1 0 58.48 0 a29.24 29.24 0 1 0 -58.48 0z" stroke="#d3b714"></path><path d="M823.21 282.91a37.94 37.94 0 1 0 63.16 42.06z" fill="#037b0b"></path><path d="M89.77 69.14L91.24 69.14L91.24 103.37L89.77 103.37z" fill="#e73635"></path><path d="M232.8 36.95L233.97 36.95L233.97 48.32L232.8 48.32z" fill="#d3b714"></path><path d="M255.66 404.03L278.31 404.03L278.31 439.3L255.66 439.3z" stroke="#e73635"></path></g><defs><mask id="SvgjsMask1002"><rect width="1520" height="560" fill="#ffffff"></rect></mask></defs></svg>