<svg xmlns="http://www.w3.org/2000/svg" version="1.1" xmlns:xlink="http://www.w3.org/1999/xlink" xmlns:svgjs="http://svgjs.com/svgjs" width="1440" height="250" preserveAspectRatio="none" viewBox="0 0 1440 250"><g mask="url(&quot;#SvgjsMask1038&quot;)" fill="none"><rect width="1440" height="250" x="0" y="0" fill="url(#SvgjsLinearGradient1039)"></rect><path d="M17 250L267 0L622.5 0L372.5 250z" fill="url(#SvgjsLinearGradient1040)"></path><path d="M268.6 250L518.6 0L710.6 0L460.6 250z" fill="url(#SvgjsLinearGradient1040)"></path><path d="M498.20000000000005 250L748.2 0L949.2 0L699.2 250z" fill="url(#SvgjsLinearGradient1040)"></path><path d="M733.8000000000001 250L983.8000000000001 0L1262.8000000000002 0L1012.8000000000001 250z" fill="url(#SvgjsLinearGradient1040)"></path><path d="M1398 250L1148 0L1088 0L1338 250z" fill="url(#SvgjsLinearGradient1041)"></path><path d="M1162.4 250L912.4000000000001 0L568.9000000000001 0L818.9000000000001 250z" fill="url(#SvgjsLinearGradient1041)"></path><path d="M932.8 250L682.8 0L561.3 0L811.3 250z" fill="url(#SvgjsLinearGradient1041)"></path><path d="M705.1999999999999 250L455.19999999999993 0L401.19999999999993 0L651.1999999999999 250z" fill="url(#SvgjsLinearGradient1041)"></path><path d="M1232.6420445637357 250L1440 42.64204456373574L1440 250z" fill="url(#SvgjsLinearGradient1040)"></path><path d="M0 250L207.35795543626426 250L 0 42.64204456373574z" fill="url(#SvgjsLinearGradient1041)"></path></g><defs><mask id="SvgjsMask1038"><rect width="1440" height="250" fill="#ffffff"></rect></mask><linearGradient x1="20.66%" y1="-119%" x2="79.34%" y2="219%" gradientUnits="userSpaceOnUse" id="SvgjsLinearGradient1039"><stop stop-color="#0e2a47" offset="0"></stop><stop stop-color="#00459e" offset="1"></stop></linearGradient><linearGradient x1="0%" y1="100%" x2="100%" y2="0%" id="SvgjsLinearGradient1040"><stop stop-color="rgba(15, 70, 185, 0.2)" offset="0"></stop><stop stop-opacity="0" stop-color="rgba(15, 70, 185, 0.2)" offset="0.66"></stop></linearGradient><linearGradient x1="100%" y1="100%" x2="0%" y2="0%" id="SvgjsLinearGradient1041"><stop stop-color="rgba(15, 70, 185, 0.2)" offset="0"></stop><stop stop-opacity="0" stop-color="rgba(15, 70, 185, 0.2)" offset="0.66"></stop></linearGradient></defs></svg>