<svg xmlns="http://www.w3.org/2000/svg" version="1.1" xmlns:xlink="http://www.w3.org/1999/xlink" xmlns:svgjs="http://svgjs.com/svgjs" width="1440" height="600" preserveAspectRatio="none" viewBox="0 0 1440 600"><g mask="url(&quot;#SvgjsMask1050&quot;)" fill="none"><rect width="1440" height="600" x="0" y="0" fill="url(#SvgjsLinearGradient1051)"></rect><path d="M14 600L614 0L935 0L335 600z" fill="url(#SvgjsLinearGradient1052)"></path><path d="M543.2 600L1143.2 0L1296.2 0L696.2 600z" fill="url(#SvgjsLinearGradient1052)"></path><path d="M1413 600L813 0L270 0L870 600z" fill="url(#SvgjsLinearGradient1053)"></path><path d="M956.8 600L356.79999999999995 0L-156.20000000000005 0L443.79999999999995 600z" fill="url(#SvgjsLinearGradient1053)"></path><path d="M1121.3947437796912 600L1440 281.39474377969117L1440 600z" fill="url(#SvgjsLinearGradient1052)"></path><path d="M0 600L318.60525622030883 600L 0 281.39474377969117z" fill="url(#SvgjsLinearGradient1053)"></path></g><defs><mask id="SvgjsMask1050"><rect width="1440" height="600" fill="#ffffff"></rect></mask><linearGradient x1="14.58%" y1="-35%" x2="85.42%" y2="135%" gradientUnits="userSpaceOnUse" id="SvgjsLinearGradient1051"><stop stop-color="#0e2a47" offset="0"></stop><stop stop-color="#00459e" offset="1"></stop></linearGradient><linearGradient x1="0%" y1="100%" x2="100%" y2="0%" id="SvgjsLinearGradient1052"><stop stop-color="rgba(15, 70, 185, 0.2)" offset="0"></stop><stop stop-opacity="0" stop-color="rgba(15, 70, 185, 0.2)" offset="0.66"></stop></linearGradient><linearGradient x1="100%" y1="100%" x2="0%" y2="0%" id="SvgjsLinearGradient1053"><stop stop-color="rgba(15, 70, 185, 0.2)" offset="0"></stop><stop stop-opacity="0" stop-color="rgba(15, 70, 185, 0.2)" offset="0.66"></stop></linearGradient></defs></svg>