<svg xmlns="http://www.w3.org/2000/svg" version="1.1" xmlns:xlink="http://www.w3.org/1999/xlink" xmlns:svgjs="http://svgjs.dev/svgjs" viewBox="0 0 800 800"><g fill="none" stroke-width="3" stroke="hsl(335, 77%, 50%)" stroke-linecap="round"><line x1="540" y1="400" x2="260" y2="400" transform="rotate(0, 400, 400)" opacity="0.55"></line><line x1="248" y1="400" x2="552" y2="400" transform="rotate(4, 400, 400)" opacity="0.16"></line><line x1="706.5" y1="400" x2="93.5" y2="400" transform="rotate(8, 400, 400)" opacity="0.32"></line><line x1="527" y1="400" x2="273" y2="400" transform="rotate(12, 400, 400)" opacity="0.80"></line><line x1="93" y1="400" x2="707" y2="400" transform="rotate(16, 400, 400)" opacity="0.62"></line><line x1="238.5" y1="400" x2="561.5" y2="400" transform="rotate(20, 400, 400)" opacity="0.95"></line><line x1="252" y1="400" x2="548" y2="400" transform="rotate(24, 400, 400)" opacity="0.61"></line><line x1="143.5" y1="400" x2="656.5" y2="400" transform="rotate(28, 400, 400)" opacity="0.24"></line><line x1="700.5" y1="400" x2="99.5" y2="400" transform="rotate(32, 400, 400)" opacity="0.32"></line><line x1="235" y1="400" x2="565" y2="400" transform="rotate(36, 400, 400)" opacity="0.41"></line><line x1="273" y1="400" x2="527" y2="400" transform="rotate(40, 400, 400)" opacity="0.74"></line><line x1="129.5" y1="400" x2="670.5" y2="400" transform="rotate(44, 400, 400)" opacity="0.50"></line><line x1="38.5" y1="400" x2="761.5" y2="400" transform="rotate(48, 400, 400)" opacity="0.08"></line><line x1="559.5" y1="400" x2="240.5" y2="400" transform="rotate(52, 400, 400)" opacity="0.60"></line><line x1="49.5" y1="400" x2="750.5" y2="400" transform="rotate(56, 400, 400)" opacity="0.73"></line><line x1="296.5" y1="400" x2="503.5" y2="400" transform="rotate(60, 400, 400)" opacity="0.10"></line><line x1="31" y1="400" x2="769" y2="400" transform="rotate(64, 400, 400)" opacity="0.11"></line><line x1="137.5" y1="400" x2="662.5" y2="400" transform="rotate(68, 400, 400)" opacity="0.20"></line><line x1="487.5" y1="400" x2="312.5" y2="400" transform="rotate(72, 400, 400)" opacity="0.55"></line><line x1="386" y1="400" x2="414" y2="400" transform="rotate(76, 400, 400)" opacity="0.96"></line><line x1="160" y1="400" x2="640" y2="400" transform="rotate(80, 400, 400)" opacity="0.68"></line><line x1="739" y1="400" x2="61" y2="400" transform="rotate(84, 400, 400)" opacity="0.12"></line><line x1="148" y1="400" x2="652" y2="400" transform="rotate(88, 400, 400)" opacity="0.87"></line><line x1="445" y1="400" x2="355" y2="400" transform="rotate(92, 400, 400)" opacity="0.68"></line><line x1="243.5" y1="400" x2="556.5" y2="400" transform="rotate(96, 400, 400)" opacity="0.13"></line><line x1="96" y1="400" x2="704" y2="400" transform="rotate(100, 400, 400)" opacity="0.80"></line><line x1="249" y1="400" x2="551" y2="400" transform="rotate(104, 400, 400)" opacity="0.10"></line><line x1="237" y1="400" x2="563" y2="400" transform="rotate(108, 400, 400)" opacity="0.91"></line><line x1="623" y1="400" x2="177" y2="400" transform="rotate(112, 400, 400)" opacity="0.93"></line><line x1="400" y1="400" x2="400" y2="400" transform="rotate(116, 400, 400)" opacity="0.49"></line><line x1="37.5" y1="400" x2="762.5" y2="400" transform="rotate(120, 400, 400)" opacity="0.20"></line><line x1="592" y1="400" x2="208" y2="400" transform="rotate(124, 400, 400)" opacity="0.94"></line><line x1="212" y1="400" x2="588" y2="400" transform="rotate(128, 400, 400)" opacity="0.98"></line><line x1="82" y1="400" x2="718" y2="400" transform="rotate(132, 400, 400)" opacity="0.55"></line><line x1="628" y1="400" x2="172" y2="400" transform="rotate(136, 400, 400)" opacity="0.79"></line><line x1="343" y1="400" x2="457" y2="400" transform="rotate(140, 400, 400)" opacity="0.09"></line><line x1="90" y1="400" x2="710" y2="400" transform="rotate(144, 400, 400)" opacity="0.16"></line><line x1="341.5" y1="400" x2="458.5" y2="400" transform="rotate(148, 400, 400)" opacity="0.41"></line><line x1="640" y1="400" x2="160" y2="400" transform="rotate(152, 400, 400)" opacity="0.13"></line><line x1="23.5" y1="400" x2="776.5" y2="400" transform="rotate(156, 400, 400)" opacity="0.35"></line><line x1="137" y1="400" x2="663" y2="400" transform="rotate(160, 400, 400)" opacity="0.73"></line><line x1="727" y1="400" x2="73" y2="400" transform="rotate(164, 400, 400)" opacity="0.63"></line><line x1="586.5" y1="400" x2="213.5" y2="400" transform="rotate(168, 400, 400)" opacity="0.70"></line><line x1="633.5" y1="400" x2="166.5" y2="400" transform="rotate(172, 400, 400)" opacity="0.96"></line><line x1="216" y1="400" x2="584" y2="400" transform="rotate(176, 400, 400)" opacity="0.45"></line><line x1="571" y1="400" x2="229" y2="400" transform="rotate(180, 400, 400)" opacity="0.36"></line><line x1="309.5" y1="400" x2="490.5" y2="400" transform="rotate(184, 400, 400)" opacity="0.11"></line><line x1="605.5" y1="400" x2="194.5" y2="400" transform="rotate(188, 400, 400)" opacity="0.55"></line><line x1="63.5" y1="400" x2="736.5" y2="400" transform="rotate(192, 400, 400)" opacity="0.67"></line><line x1="636.5" y1="400" x2="163.5" y2="400" transform="rotate(196, 400, 400)" opacity="0.76"></line><line x1="739.5" y1="400" x2="60.5" y2="400" transform="rotate(200, 400, 400)" opacity="0.98"></line><line x1="484" y1="400" x2="316" y2="400" transform="rotate(204, 400, 400)" opacity="0.24"></line><line x1="734" y1="400" x2="66" y2="400" transform="rotate(208, 400, 400)" opacity="0.18"></line><line x1="663" y1="400" x2="137" y2="400" transform="rotate(212, 400, 400)" opacity="0.28"></line><line x1="129" y1="400" x2="671" y2="400" transform="rotate(216, 400, 400)" opacity="0.81"></line><line x1="244" y1="400" x2="556" y2="400" transform="rotate(220, 400, 400)" opacity="0.32"></line><line x1="96.5" y1="400" x2="703.5" y2="400" transform="rotate(224, 400, 400)" opacity="1.00"></line><line x1="499" y1="400" x2="301" y2="400" transform="rotate(228, 400, 400)" opacity="0.99"></line><line x1="149.5" y1="400" x2="650.5" y2="400" transform="rotate(232, 400, 400)" opacity="0.94"></line><line x1="289" y1="400" x2="511" y2="400" transform="rotate(236, 400, 400)" opacity="0.52"></line><line x1="106" y1="400" x2="694" y2="400" transform="rotate(240, 400, 400)" opacity="0.75"></line><line x1="511" y1="400" x2="289" y2="400" transform="rotate(244, 400, 400)" opacity="0.49"></line><line x1="389.5" y1="400" x2="410.5" y2="400" transform="rotate(248, 400, 400)" opacity="0.72"></line><line x1="662" y1="400" x2="138" y2="400" transform="rotate(252, 400, 400)" opacity="0.64"></line><line x1="59" y1="400" x2="741" y2="400" transform="rotate(256, 400, 400)" opacity="0.99"></line><line x1="184" y1="400" x2="616" y2="400" transform="rotate(260, 400, 400)" opacity="0.48"></line><line x1="319.5" y1="400" x2="480.5" y2="400" transform="rotate(264, 400, 400)" opacity="0.65"></line><line x1="515" y1="400" x2="285" y2="400" transform="rotate(268, 400, 400)" opacity="0.33"></line><line x1="427" y1="400" x2="373" y2="400" transform="rotate(272, 400, 400)" opacity="0.26"></line><line x1="713.5" y1="400" x2="86.5" y2="400" transform="rotate(276, 400, 400)" opacity="0.82"></line><line x1="661.5" y1="400" x2="138.5" y2="400" transform="rotate(280, 400, 400)" opacity="0.18"></line><line x1="569" y1="400" x2="231" y2="400" transform="rotate(284, 400, 400)" opacity="0.25"></line><line x1="482" y1="400" x2="318" y2="400" transform="rotate(288, 400, 400)" opacity="0.63"></line><line x1="234.5" y1="400" x2="565.5" y2="400" transform="rotate(292, 400, 400)" opacity="0.55"></line><line x1="266.5" y1="400" x2="533.5" y2="400" transform="rotate(296, 400, 400)" opacity="0.47"></line><line x1="332" y1="400" x2="468" y2="400" transform="rotate(300, 400, 400)" opacity="0.57"></line><line x1="178.5" y1="400" x2="621.5" y2="400" transform="rotate(304, 400, 400)" opacity="0.67"></line><line x1="197" y1="400" x2="603" y2="400" transform="rotate(308, 400, 400)" opacity="0.43"></line><line x1="690" y1="400" x2="110" y2="400" transform="rotate(312, 400, 400)" opacity="0.65"></line><line x1="535.5" y1="400" x2="264.5" y2="400" transform="rotate(316, 400, 400)" opacity="0.13"></line><line x1="714.5" y1="400" x2="85.5" y2="400" transform="rotate(320, 400, 400)" opacity="0.13"></line><line x1="627.5" y1="400" x2="172.5" y2="400" transform="rotate(324, 400, 400)" opacity="0.47"></line><line x1="308" y1="400" x2="492" y2="400" transform="rotate(328, 400, 400)" opacity="0.68"></line><line x1="197.5" y1="400" x2="602.5" y2="400" transform="rotate(332, 400, 400)" opacity="0.08"></line><line x1="161.5" y1="400" x2="638.5" y2="400" transform="rotate(336, 400, 400)" opacity="0.50"></line><line x1="226" y1="400" x2="574" y2="400" transform="rotate(340, 400, 400)" opacity="0.78"></line><line x1="74" y1="400" x2="726" y2="400" transform="rotate(344, 400, 400)" opacity="0.44"></line><line x1="673" y1="400" x2="127" y2="400" transform="rotate(348, 400, 400)" opacity="0.18"></line></g></svg>