<svg xmlns="http://www.w3.org/2000/svg" version="1.1" xmlns:xlink="http://www.w3.org/1999/xlink" xmlns:svgjs="http://svgjs.com/svgjs" width="1440" height="560" preserveAspectRatio="none" viewBox="0 0 1440 560"><g mask="url(&quot;#SvgjsMask1049&quot;)" fill="none"><rect width="1440" height="560" x="0" y="0" fill="#0e2a47"></rect><path d="M -8.228801395951905,484 C 87.77,431.6 279.77,227 471.7711986040481,222 C 663.77,217 759.77,458 951.7711986040481,459 C 1143.77,460 1239.77,222 1431.771198604048,227 C 1623.77,232 1910.13,515.2 1911.771198604048,484 C 1913.42,452.8 1534.35,153.6 1440,71" stroke="rgba(51, 121, 194, 0.58)" stroke-width="2"></path><path d="M -501.0773309188895,178 C -405.08,232.8 -213.08,461 -21.077330918889494,452 C 170.92,443 266.92,125.6 458.9226690811105,133 C 650.92,140.4 746.92,463.8 938.9226690811105,489 C 1130.92,514.2 1318.71,295.4 1418.9226690811106,259 C 1519.14,222.6 1435.78,297.4 1440,307" stroke="rgba(51, 121, 194, 0.58)" stroke-width="2"></path><path d="M -127.11230518530681,169 C -31.11,229.2 160.89,448 352.8876948146932,470 C 544.89,492 640.89,315 832.8876948146932,279 C 1024.89,243 1120.89,312.8 1312.887694814693,290 C 1504.89,267.2 1767.47,162 1792.887694814693,165 C 1818.31,168 1510.58,277 1440,305" stroke="rgba(51, 121, 194, 0.58)" stroke-width="2"></path><path d="M -454.99084196238965,374 C -358.99,317.8 -166.99,78.4 25.009158037610355,93 C 217.01,107.6 313.01,423.6 505.00915803761035,447 C 697.01,470.4 793.01,205.2 985.0091580376104,210 C 1177.01,214.8 1374.01,470.4 1465.0091580376104,471 C 1556.01,471.6 1445,264.6 1440,213" stroke="rgba(51, 121, 194, 0.58)" stroke-width="2"></path></g><defs><mask id="SvgjsMask1049"><rect width="1440" height="560" fill="#ffffff"></rect></mask></defs></svg>